<?xml version="1.0" encoding="utf-8"?>
<!-- Generator: Adobe Illustrator 23.0.3, SVG Export Plug-In . SVG Version: 6.00 Build 0)  -->
<svg version="1.1" id="Layer_1" xmlns="http://www.w3.org/2000/svg" xmlns:xlink="http://www.w3.org/1999/xlink" x="0px" y="0px"
	 viewBox="0 0 450 150" style="enable-background:new 0 0 450 150;" xml:space="preserve">
<style type="text/css">
	.st0{fill:#FFFFFF;}
</style>
<g>
	<path class="st0" d="M179.3,75.6c-1.1,0-2.1-0.2-3-0.6c-1-0.4-1.8-0.9-2.5-1.6c-0.7-0.7-1.3-1.5-1.7-2.4c-0.4-0.9-0.7-1.9-0.7-3
		c-0.1-0.6-0.1-1.2,0-1.8c0-1.1,0.3-2.1,0.7-3c0.4-0.9,1-1.7,1.7-2.4c0.7-0.7,1.6-1.2,2.5-1.6c1-0.4,2-0.6,3-0.6h11.5v3.2h-11.5
		c-1.3,0-2.4,0.4-3.3,1.3c-0.9,0.9-1.4,1.9-1.5,3.2c-0.1,0.5-0.1,1.1,0,1.6c0.1,1.3,0.6,2.3,1.5,3.2c0.9,0.9,2,1.3,3.3,1.3h4.5h0.1
		c1.1,0,2.1,0.2,3,0.6c1,0.4,1.8,0.9,2.5,1.6c0.7,0.7,1.3,1.5,1.7,2.4c0.4,0.9,0.7,1.9,0.7,3v1.7v0.1v0.1c0,1.1-0.2,2.1-0.6,3.1
		c-0.4,0.9-1,1.8-1.7,2.5c-0.7,0.7-1.6,1.3-2.5,1.7c-1,0.4-2,0.6-3.1,0.6H172v-3.2h11.8c1.2,0,2.2-0.4,3.1-1.1
		c0.9-0.8,1.5-1.7,1.7-2.9c0-0.1,0-0.3,0-0.4c0-0.1,0-0.3,0-0.4v-1.3c0-1.3-0.5-2.4-1.5-3.4c-0.9-0.9-2.1-1.4-3.4-1.4H179.3z"/>
	<path class="st0" d="M197.5,51.2h3.2v8h11.6v3.2h-11.6v19.8c0,1.3,0.5,2.4,1.4,3.4c0.9,0.9,2.1,1.4,3.4,1.4c1.3,0,2.4-0.5,3.4-1.4
		c0.9-0.9,1.4-2.1,1.4-3.4h3.2c0,1.1-0.2,2.1-0.6,3.1c-0.4,1-1,1.8-1.7,2.5c-0.7,0.7-1.6,1.3-2.5,1.7c-1,0.4-2,0.6-3.1,0.6
		c-1.1,0-2.1-0.2-3.1-0.6c-1-0.4-1.8-1-2.5-1.7c-0.7-0.7-1.3-1.6-1.7-2.5c-0.4-1-0.6-2-0.6-3.1V51.2z"/>
	<path class="st0" d="M232.2,58.3c2.2,0,4.3,0.4,6.2,1.3c1.9,0.8,3.6,2,5.1,3.4c1.5,1.5,2.6,3.2,3.4,5.1c0.8,2,1.3,4,1.3,6.3
		c0,2.2-0.4,4.3-1.3,6.2c-0.8,1.9-2,3.6-3.4,5.1c-1.5,1.5-3.1,2.6-5.1,3.4c-1.9,0.8-4,1.3-6.2,1.3c-2.2,0-4.3-0.4-6.2-1.3
		c-1.9-0.8-3.6-2-5.1-3.4c-1.5-1.5-2.6-3.1-3.4-5.1c-0.8-1.9-1.3-4-1.3-6.2c0-2.2,0.4-4.3,1.3-6.3c0.8-2,2-3.7,3.4-5.1
		c1.5-1.5,3.1-2.6,5.1-3.4C227.9,58.7,230,58.3,232.2,58.3z M232.2,61.6c-1.8,0-3.5,0.3-5,1c-1.6,0.7-2.9,1.6-4,2.7
		c-1.1,1.1-2.1,2.5-2.7,4.1c-0.7,1.6-1,3.2-1,5c0,1.8,0.3,3.4,1,5c0.7,1.6,1.6,2.9,2.7,4.1c1.1,1.2,2.5,2.1,4,2.8c1.6,0.7,3.2,1,5,1
		c1.8,0,3.4-0.3,5-1c1.6-0.7,2.9-1.6,4.1-2.8c1.2-1.2,2.1-2.5,2.8-4.1c0.7-1.6,1-3.2,1-5c0-1.8-0.3-3.4-1-5
		c-0.7-1.6-1.6-2.9-2.8-4.1c-1.2-1.1-2.5-2.1-4.1-2.7C235.6,61.9,234,61.6,232.2,61.6z"/>
	<path class="st0" d="M256.2,89.7h-3.2V74.4c0-2.2,0.4-4.3,1.3-6.3c0.8-2,2-3.7,3.4-5.1c1.5-1.5,3.1-2.6,5.1-3.4
		c1.9-0.8,4-1.3,6.2-1.3v3.2c-1.8,0-3.4,0.3-5,1c-1.6,0.7-2.9,1.6-4.1,2.7c-1.2,1.1-2.1,2.5-2.8,4.1c-0.7,1.6-1,3.2-1,5V89.7z"/>
	<path class="st0" d="M286.3,90.3c-1.7,0-3.2-0.3-4.7-1c-1.5-0.6-2.7-1.5-3.8-2.6c-1.1-1.1-1.9-2.3-2.6-3.8c-0.6-1.4-1-3-1-4.7V59
		h3.2v19.3c0,1.2,0.2,2.4,0.7,3.5c0.4,1.1,1.1,2,1.9,2.8c0.8,0.8,1.7,1.4,2.8,1.9c1.1,0.5,2.2,0.7,3.4,0.7c1.2,0,2.4-0.2,3.4-0.7
		c1.1-0.4,2-1.1,2.8-1.9c0.8-0.8,1.4-1.7,1.9-2.8c0.5-1.1,0.7-2.2,0.7-3.5V59h3.2v19.3v14.8c0,1.7-0.3,3.2-1,4.7
		c-0.6,1.5-1.5,2.7-2.6,3.8c-1.1,1.1-2.3,1.9-3.8,2.6c-1.5,0.6-3,1-4.7,1V102c1.2,0,2.4-0.2,3.4-0.7c1.1-0.5,2-1.1,2.8-1.9
		c0.8-0.8,1.4-1.7,1.9-2.8c0.5-1.1,0.7-2.2,0.7-3.4v-6.7c-1.1,1.2-2.4,2.1-3.9,2.8C289.7,90,288,90.3,286.3,90.3z"/>
	<path class="st0" d="M304.8,51.7h5.3v7.5h10.7v5.2h-10.7v17.2c0,0.9,0.3,1.7,1,2.3c0.6,0.6,1.4,0.9,2.4,0.9c0.9,0,1.7-0.4,2.4-1.3
		c0.6-0.9,0.9-1.9,0.9-3.1h5.2c0,1.3-0.2,2.6-0.7,3.8c-0.4,1.2-1.1,2.2-1.8,3.1c-0.8,0.9-1.7,1.6-2.7,2.1c-1,0.5-2.2,0.8-3.3,0.8
		c-1.2,0-2.3-0.2-3.3-0.7c-1-0.4-2-1.1-2.7-1.8c-0.8-0.8-1.4-1.7-1.8-2.7c-0.4-1-0.7-2.1-0.7-3.3V51.7z"/>
	<path class="st0" d="M340.5,90.4c-2.2,0-4.3-0.4-6.2-1.3c-1.9-0.8-3.6-2-5.1-3.4c-1.5-1.5-2.6-3.1-3.4-5.1c-0.8-1.9-1.3-4-1.3-6.2
		c0-2.2,0.4-4.3,1.3-6.3c0.8-2,2-3.7,3.4-5.1c1.5-1.4,3.1-2.6,5.1-3.4c1.9-0.8,4-1.3,6.2-1.3c2.2,0,4.3,0.4,6.2,1.3
		c1.9,0.8,3.6,2,5.1,3.4c1.4,1.4,2.6,3.1,3.4,5.1c0.8,2,1.3,4,1.3,6.3c0,0.3,0,0.6,0,0.9c0,0.3,0,0.9-0.1,1.7h-26.2
		c0.3,1.2,0.8,2.3,1.4,3.2c0.7,1,1.4,1.8,2.3,2.6c0.9,0.7,1.9,1.3,3,1.7c1.1,0.4,2.3,0.6,3.6,0.6c1,0,2-0.3,2.9-0.8
		c1-0.5,1.9-1.2,2.8-2.1l3.7,3.7c-1.3,1.3-2.8,2.4-4.4,3.2C343.9,90,342.2,90.4,340.5,90.4z M350.9,71.9c-0.3-1.1-0.8-2.2-1.4-3.2
		c-0.6-1-1.4-1.9-2.3-2.6c-0.9-0.7-1.9-1.3-3-1.7c-1.1-0.4-2.3-0.6-3.6-0.6c-1.3,0-2.5,0.2-3.6,0.6c-1.1,0.4-2.1,1-3,1.7
		c-0.9,0.7-1.7,1.6-2.3,2.6c-0.7,1-1.1,2.1-1.4,3.2H350.9z"/>
	<path class="st0" d="M377.5,90.1c-2.2,0-4.3-0.4-6.2-1.3c-1.9-0.8-3.6-2-5.1-3.4c-1.5-1.4-2.6-3.1-3.4-5.1c-0.8-1.9-1.3-4-1.3-6.2
		s0.4-4.3,1.3-6.2c0.8-1.9,2-3.6,3.4-5.1c1.5-1.5,3.1-2.6,5.1-3.4c1.9-0.8,4-1.3,6.2-1.3c1.7,0,3.4,0.4,5,1.2
		c1.6,0.8,3.1,1.9,4.5,3.2l-3.7,3.7c-0.9-0.9-1.8-1.5-2.8-2.1c-1-0.5-2-0.8-3-0.8c-1.5,0-2.9,0.3-4.2,0.8c-1.3,0.6-2.4,1.3-3.4,2.3
		c-1,1-1.7,2.1-2.3,3.4c-0.6,1.3-0.9,2.7-0.9,4.2s0.3,2.9,0.9,4.2c0.6,1.3,1.3,2.4,2.3,3.4c1,1,2.1,1.7,3.4,2.3
		c1.3,0.6,2.7,0.9,4.2,0.9c1,0,2-0.2,3-0.7s1.9-1.2,2.8-2.1l3.7,3.7c-1.3,1.3-2.8,2.4-4.5,3.2C380.9,89.8,379.2,90.1,377.5,90.1z"/>
	<path class="st0" d="M403.7,58.4c1.7,0,3.3,0.3,4.8,1c1.5,0.7,2.8,1.5,3.9,2.6s2,2.4,2.6,3.9c0.7,1.5,1,3.1,1,4.8v19.1h-5.3V70.6
		c0-1-0.2-1.9-0.6-2.7c-0.4-0.8-0.9-1.6-1.5-2.2c-0.6-0.6-1.4-1.1-2.2-1.5c-0.8-0.4-1.7-0.6-2.7-0.6s-1.9,0.2-2.8,0.6
		c-0.9,0.4-1.6,0.9-2.2,1.5c-0.6,0.6-1.1,1.4-1.5,2.2c-0.4,0.8-0.6,1.7-0.6,2.7v19.1h-5.3V44.8h5.3v15.7c0.9-0.7,2-1.2,3.2-1.6
		C401.1,58.6,402.3,58.4,403.7,58.4z"/>
</g>
<g>
	<path class="st0" d="M49.7,124c-5.3-6.2-9.1-12.3-11.3-18.5c-2.6-6.2-4-13.2-4.4-21h3.8c0.3,14,5.2,26.4,14.6,37
		c9.9,11,22,16.7,36.2,17.2v3.8C73.5,142,60.5,135.8,49.7,124z M148,84.2v-0.5c-0.2-9.1-2.8-17.2-8-24.4h8
		c0-14.2-5.1-26.4-15.3-36.6C122.6,12.6,110.3,7.5,95.9,7.5h-1h-1.3c-12,0-22.8,3.8-32.6,11.3c-12.7,9.2-19.2,21.6-19.5,37
		c-0.2,0.3-0.3,0.8-0.3,1.3c0,0.7,0.1,1.1,0.3,1.3v0.5v0.8c0.2,8.9,2.9,17,8.2,24.4h-8.5c0.2,14.2,5.3,26.4,15.5,36.6
		c10.2,10.2,22.5,15.3,37.1,15.3h0.8h1.5c12,0,22.7-3.8,32.1-11.3c12.8-8.9,19.4-21.3,19.8-37.2v-1v-1.5V84.2z"/>
</g>
</svg>
